<?xml version="1.0" encoding="utf-8"?>
<!-- Generator: Adobe Illustrator 22.1.0, SVG Export Plug-In . SVG Version: 6.00 Build 0)  -->
<svg version="1.1" id="Layer_1" xmlns="http://www.w3.org/2000/svg" xmlns:xlink="http://www.w3.org/1999/xlink" x="0px" y="0px"
	 viewBox="0 0 566.9 190.5" style="enable-background:new 0 0 566.9 190.5;" xml:space="preserve">
<style type="text/css">
	.st0{display:none;fill:none;stroke:#000000;stroke-width:1.9924;stroke-miterlimit:2.6131;}
	.st1{fill-rule:evenodd;clip-rule:evenodd;fill:#3271B4;}
	.st2{fill-rule:evenodd;clip-rule:evenodd;fill:#FFFFFF;}
	.st3{fill:#3271B4;}
</style>
<polygon class="st0" points="47.4,55.8 47.4,156.8 69.2,156.8 69.2,56 93.4,56 93.4,156.8 162.7,156.8 162.7,57 187.3,57 
	187.3,156.6 210.1,156.6 210.1,57 235.1,57 235.1,156.6 257.9,156.6 257.9,33.9 140.7,33.9 140.7,134.4 115.6,134.4 115.6,34.1 
	26.7,34.1 26.7,55.8 47.4,55.8 "/>
<g>
	<polygon class="st1" points="312.8,64.1 309.2,64.1 309.2,35.5 301.6,35.5 301.6,32.2 320.5,32.2 320.5,35.5 312.8,35.5 
		312.8,64.1 	"/>
	<polygon class="st1" points="323.8,32.2 340.3,32.2 340.3,35.5 327.3,35.5 327.3,45 339.9,45 339.9,48.3 327.3,48.3 327.3,60.8 
		340.3,60.8 340.3,64.1 323.8,64.1 323.8,32.2 	"/>
	<path class="st1" d="M369.3,39.2c-2.5-2.6-6-4.2-9.7-4.2c-7.1,0-12.8,6.2-12.8,13.2c0,7,5.8,13.2,12.9,13.2c3.6,0,7.1-1.7,9.6-4.2
		v4.4c-2.7,2-6.1,3.1-9.5,3.1c-9,0-16.6-7.3-16.6-16.4c0-9.2,7.5-16.7,16.6-16.7c3.5,0,6.7,1,9.5,3.1V39.2L369.3,39.2z"/>
	<polygon class="st1" points="392.6,45.1 392.6,32.2 396.1,32.2 396.1,64.1 392.6,64.1 392.6,48.4 376.3,48.4 376.3,64.1 
		372.8,64.1 372.8,32.2 376.3,32.2 376.3,45.1 392.6,45.1 	"/>
	<polygon class="st1" points="399.8,30.8 424.6,56.9 424.6,32.2 428.1,32.2 428.1,65.5 403.4,39.5 403.4,64.1 399.8,64.1 
		399.8,30.8 	"/>
	<polygon class="st1" points="436.4,64.1 432.9,64.1 432.9,32.2 436.4,32.2 436.4,64.1 	"/>
	<path class="st1" d="M456.2,38.5c-1.3-2.2-2.8-3.5-5.5-3.5c-2.8,0-5.3,2-5.3,5c0,2.8,2.8,4,5,5l2.1,0.9c4.1,1.8,7.6,3.9,7.6,9
		c0,5.6-4.5,9.9-10,9.9c-5.1,0-8.9-3.3-9.9-8.3l3.5-1c0.5,3.3,3,5.9,6.4,5.9c3.4,0,6.5-2.6,6.5-6.2c0-3.7-2.9-5-5.9-6.4l-1.9-0.8
		c-3.7-1.7-6.9-3.6-6.9-8.2c0-5,4.2-8.1,8.9-8.1c3.5,0,6.5,1.8,8.2,5L456.2,38.5L456.2,38.5z"/>
	<path class="st1" d="M488.6,39.1c-2.5-2.6-6-4.2-9.7-4.2c-7.1,0-12.8,6.2-12.8,13.2c0,7,5.8,13.2,12.9,13.2c3.6,0,7.1-1.7,9.6-4.2
		v4.4c-2.7,2-6.1,3.1-9.5,3.1c-9,0-16.6-7.3-16.6-16.4c0-9.2,7.5-16.7,16.6-16.7c3.5,0,6.7,1,9.5,3.1V39.1L488.6,39.1z"/>
	<polygon class="st1" points="511.9,45.1 511.9,32.2 515.4,32.2 515.4,64.1 511.9,64.1 511.9,48.4 495.6,48.4 495.6,64.1 
		492.1,64.1 492.1,32.2 495.6,32.2 495.6,45.1 511.9,45.1 	"/>
	<polygon class="st1" points="519.5,32.2 536,32.2 536,35.5 523.1,35.5 523.1,45 535.6,45 535.6,48.3 523.1,48.3 523.1,60.8 
		536,60.8 536,64.1 519.5,64.1 519.5,32.2 	"/>
	<polygon class="st1" points="307.9,126.2 319.5,153 331.1,126.2 337.5,160 333.9,160 329.8,138.4 329.7,138.4 319.5,161.3 
		309.3,138.4 309.2,138.4 305.1,160 301.5,160 307.9,126.2 	"/>
	<polygon class="st1" points="377.4,126.7 402.2,152.8 402.2,128 405.7,128 405.7,161.4 381,135.4 381,160 377.4,160 377.4,126.7 	
		"/>
	<path class="st1" d="M439.5,135.2c-2.5-2.6-6-4.2-9.7-4.2c-7.1,0-12.8,6.2-12.8,13.2c0,7,5.8,13.2,12.9,13.2c3.6,0,7.1-1.7,9.6-4.2
		v4.4c-2.7,2-6.1,3.1-9.5,3.1c-9,0-16.6-7.3-16.6-16.4c0-9.2,7.5-16.7,16.6-16.7c3.5,0,6.7,1,9.5,3.1V135.2L439.5,135.2z"/>
	<polygon class="st1" points="468.4,141 468.4,128 472,128 472,160 468.4,160 468.4,144.3 452.2,144.3 452.2,160 448.6,160 
		448.6,128 452.2,128 452.2,141 468.4,141 	"/>
	<polygon class="st1" points="482,128 498.5,128 498.5,131.3 485.5,131.3 485.5,140.8 498.1,140.8 498.1,144.1 485.5,144.1 
		485.5,156.7 498.5,156.7 498.5,160 482,160 482,128 	"/>
	<polygon class="st1" points="507.7,126.7 532.4,152.8 532.4,128 536,128 536,161.4 511.2,135.4 511.2,160 507.7,160 507.7,126.7 	
		"/>
	<path class="st1" d="M348.6,146.9c0,2.4-0.1,5.1,1.4,7.1c1.4,1.9,4.1,3.1,6.4,3.1c2.3,0,4.8-1.1,6.2-2.8c1.7-2,1.6-4.8,1.6-7.3v-19
		h3.5v20c0,3.5-0.3,6.2-2.8,8.9c-2.2,2.4-5.4,3.6-8.6,3.6c-3,0-6.1-1.1-8.2-3.3c-2.8-2.7-3.1-5.6-3.1-9.2v-20h3.5V146.9L348.6,146.9
		z"/>
	<path class="st1" d="M352.8,132.5c1.3,0,2.3-1,2.3-2.3c0-1.3-1-2.3-2.3-2.3c-1.3,0-2.3,1-2.3,2.3
		C350.5,131.5,351.6,132.5,352.8,132.5L352.8,132.5z"/>
	<path class="st1" d="M359.9,132.5c1.3,0,2.3-1,2.3-2.3c0-1.3-1-2.3-2.3-2.3c-1.3,0-2.3,1-2.3,2.3
		C357.6,131.5,358.6,132.5,359.9,132.5L359.9,132.5z"/>
	<path class="st1" d="M305,99.7c0,2.4-0.1,5.1,1.4,7.1c1.4,2,4.1,3.1,6.4,3.1c2.3,0,4.8-1.1,6.2-2.8c1.7-2,1.6-4.8,1.6-7.3v-19h3.5
		v20c0,3.5-0.3,6.2-2.8,8.9c-2.2,2.4-5.4,3.6-8.6,3.6c-3,0-6.1-1.1-8.2-3.3c-2.8-2.7-3.1-5.6-3.1-9.2v-20h3.5V99.7L305,99.7z"/>
	<polygon class="st1" points="328,79.3 352.8,105.4 352.8,80.7 356.3,80.7 356.3,114.1 331.6,88 331.6,112.6 328,112.6 328,79.3 	
		"/>
	<polygon class="st1" points="365.3,112.6 361.7,112.6 361.7,80.7 365.3,80.7 365.3,112.6 	"/>
	<polygon class="st1" points="382,105 391.1,80.7 394.9,80.7 382,114.5 369.1,80.7 373,80.7 382,105 	"/>
	<polygon class="st1" points="398.8,80.7 415.2,80.7 415.2,84 402.3,84 402.3,93.5 414.9,93.5 414.9,96.8 402.3,96.8 402.3,109.3 
		415.2,109.3 415.2,112.6 398.8,112.6 398.8,80.7 	"/>
	<path class="st1" d="M423,112.6h-3.5v-32h4.6c6,0,11.6,1.6,11.6,8.8c0,4.9-3.1,8.4-8,8.8l10.1,14.3h-4.3l-9.6-14H423V112.6
		L423,112.6z"/>
	<path class="st2" d="M423,95.5h1.1c4,0,8-0.8,8-5.7c0-5.3-3.8-5.8-8.1-5.8H423V95.5L423,95.5z"/>
	<path class="st1" d="M455.4,86.9c-1.3-2.2-2.8-3.5-5.5-3.5c-2.8,0-5.3,2-5.3,5c0,2.8,2.8,4,5,5l2.1,0.9c4.1,1.8,7.6,3.9,7.6,9
		c0,5.6-4.5,9.9-10,9.9c-5.1,0-8.9-3.3-9.9-8.3l3.5-1c0.5,3.3,3,5.9,6.4,5.9c3.4,0,6.5-2.6,6.5-6.2c0-3.7-2.9-5-5.9-6.4l-1.9-0.8
		c-3.7-1.7-6.9-3.6-6.9-8.2c0-5,4.2-8.1,8.9-8.1c3.5,0,6.5,1.8,8.2,5L455.4,86.9L455.4,86.9z"/>
	<polygon class="st1" points="467.6,112.6 464,112.6 464,80.7 467.6,80.7 467.6,112.6 	"/>
	<polygon class="st1" points="483.7,112.6 480.1,112.6 480.1,84 472.5,84 472.5,80.7 491.4,80.7 491.4,84 483.7,84 483.7,112.6 	"/>
	<polygon class="st1" points="528.2,112.6 524.7,112.6 524.7,84 517,84 517,80.7 536,80.7 536,84 528.2,84 528.2,112.6 	"/>
	<polygon class="st1" points="497.3,103.6 493.5,112.6 489.6,112.6 504.3,79.2 518.6,112.6 514.7,112.6 510.9,103.6 497.3,103.6 	
		"/>
	<polygon class="st2" points="504.2,87.5 498.8,100.3 509.5,100.3 504.2,87.5 	"/>
	<path class="st1" d="M510.5,84.6c1.3,0,2.3-1.1,2.3-2.4c0-1.3-1-2.4-2.3-2.4c-1.3,0-2.3,1.1-2.3,2.4
		C508.2,83.5,509.3,84.6,510.5,84.6L510.5,84.6z"/>
	<path class="st1" d="M497.8,84.6c1.3,0,2.3-1.1,2.3-2.4c0-1.3-1-2.4-2.3-2.4c-1.3,0-2.3,1.1-2.3,2.4
		C495.5,83.6,496.5,84.6,497.8,84.6L497.8,84.6z"/>
	<path class="st3" d="M122.3,33.7v103h26.6v-103h123V160h-23.3V57H222v103h-23.3V57h-26.6v103H99V57H75.8v103H52.5V57H29.2V33.7
		H122.3z"/>
</g>
</svg>
